<svg width="24" height="24" viewBox="0 0 24 24" fill="none" xmlns="http://www.w3.org/2000/svg">
<path d="M12 6C15.3137 6 18 8.68629 18 12C18 15.3137 15.3137 18 12 18C8.68629 18 6 15.3137 6 12C6 8.68629 8.68629 6 12 6ZM12 7C9.23858 7 7 9.23858 7 12C7 14.7614 9.23858 17 12 17C14.7614 17 17 14.7614 17 12C17 9.23858 14.7614 7 12 7ZM13.6367 10.2139C13.8252 10.012 14.1419 10.001 14.3438 10.1895C14.5453 10.378 14.5556 10.6938 14.3672 10.8955L11.6641 13.79C11.5707 13.89 11.4405 13.9478 11.3037 13.9492C11.1671 13.9505 11.0357 13.8958 10.9404 13.7979L9.6416 12.4619C9.44926 12.264 9.45349 11.9474 9.65137 11.7549C9.84925 11.5626 10.1659 11.567 10.3584 11.7646L11.291 12.7246L13.6367 10.2139Z" fill="#454545"/>
</svg>
