<svg width="228" height="40" viewBox="0 0 228 40" fill="none" xmlns="http://www.w3.org/2000/svg">
<g clip-path="url(#clip0_3010_6975)">
<path d="M5.93453 9.80205V28.3834C5.93453 28.6884 5.97777 28.9121 6.0668 29.0544C6.15583 29.1968 6.28811 29.3035 6.46617 29.3722L6.99781 29.5196C7.31323 29.6569 7.47094 29.8602 7.47094 30.1246C7.47094 30.5669 7.19113 30.788 6.62897 30.788H0.943725C0.658827 30.788 0.450241 30.7321 0.315423 30.6177C0.183149 30.5059 0.117012 30.3559 0.117012 30.1678C0.117012 30.0102 0.160255 29.8806 0.249286 29.7763C0.338316 29.6721 0.475678 29.5882 0.663914 29.5171L1.2388 29.3696C1.41686 29.301 1.54913 29.1968 1.63816 29.0595C1.72719 28.9223 1.77044 28.696 1.77044 28.3808V12.3109C1.77044 12.0542 1.73228 11.8737 1.65343 11.7644C1.57457 11.6551 1.45247 11.5865 1.28458 11.5585L0.501115 11.5C0.323054 11.4517 0.195867 11.3831 0.117012 11.2941C0.038156 11.2052 0 11.0933 0 10.9535C0 10.7858 0.0483309 10.651 0.147536 10.5468C0.246742 10.4426 0.427347 10.3435 0.694439 10.2443L3.39334 9.24283C3.77744 9.10557 4.08523 9.00389 4.31671 8.94034C4.54819 8.87679 4.76695 8.84375 4.973 8.84375C5.28842 8.84375 5.52753 8.93272 5.69033 9.11065C5.85313 9.28858 5.93453 9.5199 5.93453 9.80459V9.80205ZM5.47666 20.7678L4.79748 20.0586L5.37236 19.5426C6.62388 18.3911 7.71514 17.5879 8.65123 17.1304C9.58733 16.6728 10.4624 16.444 11.2789 16.444C12.5584 16.444 13.5886 16.8508 14.367 17.6616C15.1454 18.4725 15.5346 19.563 15.5346 20.9305V28.3402C15.5346 28.6655 15.5804 28.9045 15.6745 29.057C15.7686 29.2095 15.9085 29.3163 16.0967 29.3747L16.6131 29.5221C16.809 29.5908 16.954 29.6772 17.0405 29.7814C17.1269 29.8856 17.1727 30.0153 17.1727 30.1729C17.1727 30.361 17.1066 30.5109 16.9743 30.6228C16.842 30.7372 16.6309 30.7931 16.346 30.7931H10.6455C10.0834 30.7931 9.80354 30.572 9.80354 30.1297C9.80354 29.8628 9.95617 29.662 10.2614 29.5247L10.8236 29.3773C11.0093 29.3086 11.1492 29.1993 11.2382 29.0519C11.3272 28.9045 11.3705 28.6681 11.3705 28.3427V21.538C11.3705 20.6712 11.1594 20.0256 10.7345 19.596C10.3123 19.169 9.74504 18.9529 9.03534 18.9529C8.59273 18.9529 8.11959 19.0571 7.61848 19.263C7.11736 19.4689 6.60353 19.7994 6.08206 20.2518L5.47666 20.7678Z" fill="white"/>
<path d="M17.4335 26.5533V19.8681C17.4335 19.6114 17.3954 19.4309 17.3165 19.3216C17.2377 19.2123 17.1156 19.1437 16.9477 19.1157L16.1642 19.0573C15.9861 19.009 15.859 18.9403 15.7801 18.8514C15.7012 18.7624 15.6631 18.6506 15.6631 18.5108C15.6631 18.343 15.7114 18.2083 15.8106 18.1041C15.9098 17.9998 16.0904 17.9007 16.3575 17.8016L19.059 16.7975C19.4532 16.6501 19.7687 16.5459 20.0052 16.4874C20.2418 16.4289 20.4428 16.3984 20.6106 16.3984C20.9439 16.3984 21.1932 16.4874 21.356 16.6653C21.5188 16.8433 21.6002 17.0746 21.6002 17.3593V25.9331C21.6002 26.7999 21.8087 27.4481 22.2285 27.8802C22.6482 28.3123 23.2053 28.5284 23.9048 28.5284C24.3474 28.5284 24.8154 28.4216 25.3089 28.2107C25.8024 27.9997 26.3086 27.6667 26.8301 27.2142L27.4355 26.6982L28.1147 27.4074L27.5398 27.9234C26.2883 29.0749 25.2021 29.8807 24.2762 30.3433C23.3502 30.806 22.4803 31.0373 21.6612 31.0373C20.3919 31.0373 19.3693 30.628 18.596 29.8121C17.8227 28.9961 17.4361 27.9082 17.4361 26.5508L17.4335 26.5533ZM26.9013 28.5004V27.8065L26.769 27.748V19.8681C26.769 19.6114 26.7334 19.4309 26.6596 19.3216C26.5859 19.2123 26.4612 19.1437 26.2832 19.1157L25.515 19.0573C25.3293 19.009 25.1944 18.9403 25.1156 18.8514C25.0367 18.7624 24.9986 18.6506 24.9986 18.5108C24.9986 18.343 25.0469 18.2083 25.1461 18.1041C25.2453 17.9998 25.4259 17.9007 25.693 17.8016L28.4097 16.7975C28.7837 16.6603 29.0889 16.5586 29.3255 16.495C29.562 16.4315 29.7833 16.3984 29.9894 16.3984C30.3048 16.3984 30.5439 16.4874 30.7067 16.6653C30.8695 16.8433 30.9509 17.0746 30.9509 17.3593V28.2666C30.9509 28.5716 30.9916 28.7979 31.0756 28.9453C31.1595 29.0927 31.2943 29.1969 31.4826 29.2554L32.0295 29.4028C32.2253 29.4613 32.3703 29.5452 32.4568 29.6545C32.5433 29.7638 32.5891 29.896 32.5891 30.0536C32.5891 30.2417 32.5229 30.3916 32.3907 30.5035C32.2584 30.6179 32.0473 30.6738 31.7624 30.6738H28.8244C28.2825 30.6738 27.8272 30.473 27.4584 30.0688C27.0895 29.6646 26.9038 29.1435 26.9038 28.5055L26.9013 28.5004Z" fill="white"/>
<path d="M37.2607 9.80459V29.1968L35.592 30.6431C35.0884 30.8389 34.7271 30.9736 34.5058 31.0422C34.2845 31.1108 34.0759 31.1464 33.8775 31.1464C33.641 31.1464 33.4527 31.0778 33.3103 30.9405C33.1678 30.8033 33.0966 30.605 33.0966 30.3508V12.3135C33.0966 12.0567 33.0585 11.8762 32.9796 11.7669C32.9007 11.6576 32.7786 11.589 32.6108 11.561L31.8273 11.5026C31.6492 11.4543 31.522 11.3857 31.4432 11.2967C31.3643 11.2077 31.3262 11.0959 31.3262 10.9561C31.3262 10.7883 31.3745 10.6536 31.4737 10.5494C31.5729 10.4452 31.7535 10.346 32.0206 10.2469L34.7221 9.24283C35.1163 9.0954 35.4292 8.99118 35.6607 8.93272C35.8922 8.87425 36.0957 8.84375 36.2737 8.84375C36.607 8.84375 36.8562 8.93272 37.019 9.11065C37.1818 9.28858 37.2632 9.5199 37.2632 9.80459H37.2607ZM36.406 21.1999L35.7268 20.3433C36.5154 19.1232 37.421 18.17 38.4435 17.4811C39.4661 16.7923 40.6032 16.4491 41.8547 16.4491C43.0172 16.4491 44.0575 16.7465 44.9784 17.3413C45.8992 17.9361 46.6216 18.7572 47.1482 19.807C47.6747 20.8568 47.9393 22.0617 47.9393 23.4292C47.9393 25.0026 47.6239 26.3676 46.993 27.5242C46.3622 28.6808 45.51 29.5755 44.4366 30.211C43.3631 30.8465 42.1625 31.1642 40.8321 31.1642C39.6518 31.1642 38.6012 30.8872 37.6855 30.3305C36.7698 29.7738 36.0168 28.9706 35.4267 27.9182L36.462 27.0463C36.9529 27.8521 37.5024 28.4545 38.1078 28.8536C38.7132 29.2527 39.3695 29.451 40.0792 29.451C40.7482 29.451 41.3485 29.2552 41.8801 28.8613C42.4118 28.4673 42.8315 27.8572 43.1342 27.0311C43.4369 26.205 43.592 25.1526 43.592 23.8715C43.592 22.6717 43.442 21.6804 43.1418 20.8975C42.8416 20.1146 42.4321 19.5325 41.9157 19.1486C41.3994 18.7648 40.8092 18.5742 40.1504 18.5742C39.4305 18.5742 38.759 18.7902 38.1332 19.2223C37.5074 19.6545 36.93 20.3154 36.3984 21.1999H36.406Z" fill="white"/>
<path d="M49.9319 30.5706C49.4486 30.5706 49.006 30.4486 48.6015 30.2021C48.197 29.9555 47.8816 29.6276 47.6501 29.2133C47.4187 28.7989 47.3042 28.3566 47.3042 27.8838C47.3042 27.4111 47.4187 26.9433 47.6501 26.5417C47.8816 26.1376 48.1996 25.8173 48.6015 25.5758C49.006 25.3343 49.4486 25.2148 49.9319 25.2148C50.4152 25.2148 50.8832 25.3369 51.275 25.5758C51.6692 25.8173 51.9821 26.1401 52.2136 26.5417C52.4451 26.9459 52.5595 27.3933 52.5595 27.8838C52.5595 28.3744 52.4425 28.7989 52.2136 29.2133C51.9847 29.6276 51.6692 29.9555 51.275 30.2021C50.8807 30.4486 50.433 30.5706 49.9319 30.5706Z" fill="white"/>
<path d="M58.2761 9.80459V28.3859C58.2761 28.6909 58.3193 28.9146 58.4084 29.057C58.4974 29.1993 58.6297 29.3061 58.8077 29.3747L59.3394 29.5221C59.6548 29.6594 59.8125 29.8628 59.8125 30.1271C59.8125 30.5694 59.5327 30.7906 58.9705 30.7906H53.2853C53.0004 30.7906 52.7918 30.7346 52.657 30.6203C52.5247 30.5084 52.4586 30.3584 52.4586 30.1703C52.4586 30.0127 52.5018 29.8831 52.5908 29.7789C52.6799 29.6747 52.8172 29.5908 53.0055 29.5196L53.5803 29.3722C53.7584 29.3035 53.8907 29.1993 53.9797 29.0621C54.0687 28.9248 54.112 28.6986 54.112 28.3834V12.3135C54.112 12.0567 54.0738 11.8762 53.995 11.7669C53.9161 11.6576 53.794 11.589 53.6261 11.561L52.8427 11.5026C52.6646 11.4543 52.5374 11.3857 52.4586 11.2967C52.3797 11.2077 52.3416 11.0959 52.3416 10.9561C52.3416 10.7883 52.3899 10.6536 52.4891 10.5494C52.5883 10.4452 52.7689 10.346 53.036 10.2469L55.7374 9.24283C56.1215 9.10557 56.4293 9.00389 56.6608 8.94034C56.8923 8.87679 57.111 8.84375 57.3171 8.84375C57.6325 8.84375 57.8716 8.93272 58.0344 9.11065C58.1972 9.28858 58.2786 9.5199 58.2786 9.80459H58.2761ZM57.8182 20.7704L57.139 20.0612L57.7139 19.5452C58.9654 18.3937 60.0567 17.5904 60.9928 17.1329C61.9289 16.6754 62.8039 16.4466 63.6205 16.4466C64.9 16.4466 65.9302 16.8533 66.7086 17.6642C67.4869 18.475 67.8761 19.5655 67.8761 20.933V28.3427C67.8761 28.6681 67.9219 28.907 68.016 29.0595C68.1101 29.212 68.2501 29.3188 68.4383 29.3773L68.9547 29.5247C69.1505 29.5933 69.2955 29.6797 69.382 29.784C69.4685 29.8882 69.5143 30.0178 69.5143 30.1754C69.5143 30.3635 69.4482 30.5135 69.3159 30.6253C69.1836 30.7397 68.9725 30.7956 68.6876 30.7956H62.9871C62.4249 30.7956 62.1451 30.5745 62.1451 30.1322C62.1451 29.8653 62.2977 29.6645 62.603 29.5272L63.1651 29.3798C63.3508 29.3112 63.4907 29.2019 63.5798 29.0544C63.6688 28.907 63.712 28.6706 63.712 28.3452V21.5406C63.712 20.6738 63.5009 20.0281 63.0761 19.5985C62.6538 19.1715 62.0866 18.9554 61.3769 18.9554C60.9343 18.9554 60.4611 19.0597 59.96 19.2656C59.4589 19.4715 58.9451 19.8019 58.4236 20.2544L57.8182 20.7704Z" fill="white"/>
<path d="M82.218 21.9932C82.218 22.5244 82.0654 22.9362 81.7602 23.226C81.4549 23.5158 81.0123 23.6607 80.4298 23.6607H71.1986V22.5092H77.2527C77.764 22.5092 78.0209 22.2779 78.0209 21.8152C78.0209 20.5265 77.7843 19.5504 77.3112 18.887C76.8381 18.2235 76.2047 17.8905 75.4059 17.8905C74.7853 17.8905 74.2384 18.0761 73.7678 18.4447C73.2946 18.8132 72.9258 19.3445 72.6612 20.0384C72.3942 20.7324 72.2619 21.5661 72.2619 22.5397C72.2619 24.4385 72.7096 25.8645 73.605 26.8202C74.5004 27.7735 75.6883 28.2513 77.1637 28.2513C78.0311 28.2513 78.7916 28.0785 79.4454 27.7353C80.0991 27.3896 80.6155 26.9041 80.9894 26.2737C81.1675 26.078 81.3099 25.9433 81.4168 25.8747C81.5236 25.806 81.633 25.7704 81.7424 25.7704C81.9001 25.7704 82.0145 25.8416 82.0883 25.984C82.1621 26.1263 82.1952 26.3017 82.185 26.5076C82.1443 27.3337 81.8518 28.0988 81.3049 28.8029C80.7579 29.507 80.0152 30.0663 79.074 30.4857C78.1328 30.9051 77.0517 31.1135 75.8333 31.1135C74.4062 31.1135 73.1369 30.8212 72.0304 30.234C70.9239 29.6494 70.0539 28.8284 69.4231 27.7684C68.7922 26.7109 68.4768 25.473 68.4768 24.0572C68.4768 22.5524 68.777 21.2255 69.3773 20.0791C69.9776 18.9327 70.8374 18.0329 71.9541 17.3796C73.0708 16.7263 74.4037 16.3984 75.9503 16.3984C77.2705 16.3984 78.3974 16.6374 79.3335 17.1153C80.2696 17.5931 80.9818 18.2515 81.4753 19.0929C81.9662 19.9342 82.213 20.9002 82.213 21.9932H82.218Z" fill="white"/>
<path d="M82.4896 27.6286C82.4896 26.3983 83.0416 25.4044 84.143 24.6469C85.2445 23.8894 86.786 23.5107 88.765 23.5107C89.4035 23.5107 89.9834 23.5641 90.4998 23.6734C91.0162 23.7827 91.4614 23.925 91.8353 24.1004L91.5097 25.074C91.1739 24.9164 90.833 24.7944 90.4846 24.7054C90.1361 24.6164 89.757 24.5732 89.3551 24.5732C88.5386 24.5732 87.8976 24.7816 87.4346 25.2011C86.9717 25.6205 86.7402 26.1975 86.7402 26.9346C86.7402 27.6718 86.936 28.2234 87.3303 28.6174C87.7246 29.0114 88.2308 29.2071 88.8515 29.2071C89.3831 29.2071 89.8944 29.0851 90.3879 28.8385C90.8788 28.592 91.2935 28.2539 91.6292 27.8192L91.9548 28.6911C91.4028 29.4587 90.6702 30.051 89.7545 30.4704C88.8388 30.8898 87.8696 31.0983 86.8445 31.0983C85.5548 31.0983 84.5068 30.778 83.6979 30.14C82.8915 29.4994 82.4871 28.6631 82.4871 27.6311L82.4896 27.6286ZM91.3799 28.8385V28.5284L91.1001 28.4547V19.6724C91.1001 18.9734 90.9221 18.4345 90.5685 18.0558C90.2149 17.677 89.7163 17.4864 89.0779 17.4864C88.4979 17.4864 88.0477 17.6109 87.7348 17.8626C87.4194 18.1142 87.2616 18.4167 87.2616 18.77V20.0689C87.2616 20.6688 87.0632 21.1289 86.6639 21.4492C86.2645 21.7695 85.7049 21.9296 84.9875 21.9296C84.3669 21.9296 83.8988 21.7847 83.5834 21.495C83.268 21.2052 83.1103 20.8036 83.1103 20.2926C83.1103 19.6724 83.3672 19.0624 83.8785 18.4625C84.3898 17.8626 85.1453 17.3694 86.1449 16.9805C87.1446 16.5916 88.3783 16.3984 89.8435 16.3984C91.6547 16.3984 93.0028 16.7645 93.8906 17.4991C94.7784 18.2337 95.221 19.2225 95.221 20.4731V28.1471C95.221 28.4217 95.2769 28.6301 95.3914 28.7673C95.5033 28.9046 95.6636 28.9732 95.8722 28.9732C96.0808 28.9732 96.3682 29.0012 96.6149 28.836C96.7599 28.7394 96.8337 28.6275 96.9227 28.5157C96.9813 28.4445 97.0398 28.3886 97.1008 28.3378C97.1619 28.2869 97.2331 28.2641 97.3221 28.2641C97.4391 28.2641 97.5282 28.3098 97.5892 28.4039C97.6477 28.4979 97.6782 28.6174 97.6782 28.7648C97.6782 29.1003 97.5612 29.446 97.3323 29.8044C97.1008 30.1629 96.47 30.4679 96.007 30.7195C95.544 30.9712 94.9717 31.0957 94.2925 31.0957C93.4073 31.0957 92.7001 30.8949 92.1736 30.4908C91.647 30.0866 91.3825 29.5375 91.3825 28.8385H91.3799Z" fill="white"/>
<path d="M101.017 9.80459V28.3859C101.017 28.6909 101.061 28.9172 101.15 29.0646C101.239 29.212 101.371 29.3163 101.549 29.3747L102.096 29.5221C102.292 29.5806 102.437 29.6645 102.531 29.7738C102.625 29.8831 102.671 30.0153 102.671 30.1729C102.671 30.361 102.602 30.5109 102.465 30.6228C102.327 30.7372 102.116 30.7931 101.829 30.7931H96.0241C95.7392 30.7931 95.5306 30.7372 95.3958 30.6228C95.2635 30.5109 95.1973 30.361 95.1973 30.1729C95.1973 30.0153 95.2406 29.8856 95.3296 29.7814C95.4186 29.6772 95.556 29.5933 95.7442 29.5221L96.3191 29.3747C96.4972 29.3061 96.6295 29.2019 96.7185 29.0646C96.8075 28.9273 96.8508 28.7011 96.8508 28.3859V12.3135C96.8508 12.0567 96.8126 11.8762 96.7337 11.7669C96.6549 11.6576 96.5328 11.589 96.3649 11.561L95.5814 11.5026C95.4034 11.4543 95.2762 11.3857 95.1973 11.2967C95.1185 11.2077 95.0803 11.0959 95.0803 10.9561C95.0803 10.7883 95.1287 10.6536 95.2279 10.5494C95.3271 10.4452 95.5077 10.346 95.7748 10.2469L98.4762 9.24283C98.8705 9.0954 99.1859 8.99118 99.4225 8.93272C99.659 8.87425 99.86 8.84375 100.028 8.84375C100.364 8.84375 100.61 8.93272 100.773 9.11065C100.936 9.28858 101.017 9.5199 101.017 9.80459Z" fill="white"/>
<path d="M102.784 17.6973L102.104 17.5066C101.868 17.4278 101.7 17.3363 101.603 17.2347C101.504 17.1304 101.456 17.0059 101.456 16.8584C101.456 16.6627 101.524 16.5102 101.662 16.4009C101.799 16.2941 101.982 16.2382 102.209 16.2382H103.094C103.331 16.2382 103.529 16.195 103.692 16.106C103.855 16.0171 104.025 15.8544 104.2 15.618L105.78 13.376C105.986 13.1193 106.187 12.9312 106.378 12.8067C106.569 12.6846 106.759 12.6211 106.948 12.6211C107.164 12.6211 107.329 12.6872 107.441 12.8194C107.553 12.9515 107.612 13.1422 107.612 13.3887V26.0068C107.612 26.6956 107.746 27.2218 108.019 27.5853C108.291 27.9488 108.67 28.1318 109.163 28.1318C109.527 28.1318 109.809 28.0606 110.013 27.9183C110.214 27.7759 110.374 27.6107 110.494 27.4251C110.611 27.2396 110.728 27.0718 110.84 26.9244C110.952 26.777 111.099 26.7032 111.275 26.7032C111.422 26.7032 111.542 26.7541 111.628 26.8583C111.715 26.9625 111.76 27.1252 111.76 27.354C111.76 27.9157 111.577 28.4394 111.214 28.9249C110.85 29.4104 110.344 29.8044 109.7 30.1043C109.056 30.4043 108.324 30.5542 107.507 30.5542C106.238 30.5542 105.243 30.2365 104.524 29.601C103.804 28.9655 103.445 28.0047 103.445 26.716V18.5997C103.445 18.3429 103.394 18.1523 103.29 18.0252C103.186 17.8981 103.018 17.7888 102.781 17.6998L102.784 17.6973ZM105.958 17.7278V16.2382H110.863C111.099 16.2382 111.285 16.2865 111.417 16.3857C111.549 16.4848 111.615 16.6221 111.615 16.8C111.615 17.0669 111.486 17.288 111.224 17.4634C110.962 17.6414 110.542 17.7303 109.962 17.7303H105.961L105.958 17.7278Z" fill="white"/>
<path d="M117.071 9.80459V28.3859C117.071 28.6909 117.115 28.9146 117.204 29.057C117.293 29.1993 117.425 29.3061 117.603 29.3747L118.135 29.5221C118.45 29.6594 118.608 29.8628 118.608 30.1271C118.608 30.5694 118.328 30.7906 117.766 30.7906H112.081C111.796 30.7906 111.587 30.7346 111.452 30.6203C111.32 30.5084 111.254 30.3584 111.254 30.1703C111.254 30.0127 111.297 29.8831 111.386 29.7789C111.475 29.6747 111.613 29.5908 111.801 29.5196L112.376 29.3722C112.554 29.3035 112.686 29.1993 112.775 29.0621C112.864 28.9248 112.907 28.6986 112.907 28.3834V12.3135C112.907 12.0567 112.869 11.8762 112.79 11.7669C112.712 11.6576 112.589 11.589 112.422 11.561L111.638 11.5026C111.46 11.4543 111.333 11.3857 111.254 11.2967C111.175 11.2077 111.137 11.0959 111.137 10.9561C111.137 10.7883 111.185 10.6536 111.284 10.5494C111.384 10.4452 111.564 10.346 111.831 10.2469L114.533 9.24283C114.917 9.10557 115.225 9.00389 115.456 8.94034C115.688 8.87679 115.906 8.84375 116.113 8.84375C116.428 8.84375 116.667 8.93272 116.83 9.11065C116.993 9.28858 117.074 9.5199 117.074 9.80459H117.071ZM116.614 20.7704L115.934 20.0612L116.509 19.5452C117.761 18.3937 118.852 17.5904 119.788 17.1329C120.724 16.6754 121.599 16.4466 122.416 16.4466C123.695 16.4466 124.726 16.8533 125.504 17.6642C126.282 18.475 126.672 19.5655 126.672 20.933V28.3427C126.672 28.6681 126.717 28.907 126.811 29.0595C126.906 29.212 127.045 29.3188 127.234 29.3773L127.75 29.5247C127.946 29.5933 128.091 29.6797 128.177 29.784C128.264 29.8882 128.31 30.0178 128.31 30.1754C128.31 30.3635 128.244 30.5135 128.111 30.6253C127.979 30.7397 127.768 30.7956 127.483 30.7956H121.782C121.22 30.7956 120.94 30.5745 120.94 30.1322C120.94 29.8653 121.093 29.6645 121.398 29.5272L121.961 29.3798C122.146 29.3112 122.286 29.2019 122.375 29.0544C122.464 28.907 122.507 28.6706 122.507 28.3452V21.5406C122.507 20.6738 122.296 20.0281 121.872 19.5985C121.449 19.1715 120.882 18.9554 120.172 18.9554C119.73 18.9554 119.257 19.0597 118.755 19.2656C118.254 19.4715 117.74 19.8019 117.219 20.2544L116.614 20.7704Z" fill="white"/>
</g>
<path d="M141.563 0L141.563 40" stroke="white" stroke-width="1.16842"/>
<g clip-path="url(#clip1_3010_6975)">
<path d="M197.445 15.6286C196.831 14.9854 196.09 14.4776 195.268 14.1379C194.369 13.7795 193.408 13.6036 192.441 13.6206C191.337 13.5859 190.241 13.8175 189.245 14.2958C188.508 14.6585 187.846 15.1585 187.296 15.7689V13.9626H182.511V31.7543H187.34V22.0298C187.308 21.497 187.387 20.9635 187.571 20.4625C187.756 19.9615 188.042 19.504 188.411 19.1186C188.793 18.7627 189.242 18.487 189.732 18.3077C190.222 18.1285 190.743 18.0494 191.264 18.0751C191.716 18.0481 192.167 18.1232 192.585 18.2948C193.003 18.4663 193.377 18.73 193.679 19.066C194.278 19.7889 194.59 20.7062 194.557 21.644V31.7543H199.35V20.8285C199.362 19.8315 199.199 18.8402 198.867 17.8997C198.557 17.0517 198.073 16.278 197.445 15.6286Z" fill="white"/>
<path d="M206.093 13.9648H201.264V31.7566H206.093V13.9648Z" fill="white"/>
<path d="M206.093 8H201.264V12.437H206.093V8Z" fill="white"/>
<path d="M226.329 19.3993C225.87 18.3146 225.208 17.3267 224.38 16.4881C223.57 15.6473 222.604 14.9713 221.536 14.4976C220.445 14.0335 219.271 13.7948 218.085 13.7961C217.1 13.7905 216.12 13.9354 215.179 14.2258C214.348 14.4751 213.567 14.8668 212.87 15.3833V8H208.033V31.7545H212.853V30.4392C213.546 30.9565 214.329 31.3428 215.162 31.5791C216.104 31.8629 217.084 32.0047 218.068 32C219.258 32.003 220.438 31.7675 221.536 31.3073C222.607 30.865 223.579 30.2153 224.398 29.3957C225.223 28.5747 225.884 27.6047 226.347 26.5371C226.838 25.4056 227.086 24.1838 227.075 22.9507C227.081 21.7151 226.833 20.4914 226.347 19.3555M221.957 24.8184C221.72 25.3818 221.384 25.8985 220.965 26.3442C220.543 26.7849 220.035 27.1342 219.472 27.3701C218.887 27.6093 218.261 27.7315 217.629 27.7296C216.971 27.7348 216.318 27.6127 215.706 27.3701C214.834 27.0159 214.089 26.4088 213.566 25.6273C213.044 24.8457 212.768 23.9256 212.774 22.9858C212.77 22.3467 212.899 21.7139 213.151 21.1268C213.397 20.555 213.752 20.0367 214.196 19.601C214.642 19.1441 215.173 18.7779 215.759 18.5225C216.355 18.2682 216.998 18.1398 217.646 18.1454C218.281 18.1408 218.909 18.2693 219.49 18.5225C220.049 18.7649 220.556 19.1133 220.982 19.5484C221.635 20.2383 222.075 21.101 222.251 22.0337C222.427 22.9664 222.331 23.9299 221.975 24.8096" fill="white"/>
<path d="M154.813 17.6719V22.0825H161.371L156.735 26.7124L159.861 29.8341L164.496 25.2042V31.7544H168.912V17.6719H164.496H154.813Z" fill="white"/>
<path d="M163.425 16.6036V13.4907L159.861 9.92188L156.735 13.0435L160.309 16.6036H163.425Z" fill="white"/>
<path d="M169.983 23.1523V26.274L173.548 29.8341L176.673 26.7124L173.1 23.1523H169.983Z" fill="white"/>
<path d="M176.673 13.0435L173.548 9.92188L169.983 13.4907V16.6124H173.109L176.673 13.0435Z" fill="white"/>
<path d="M173.548 17.6719L171.335 19.8816L173.548 22.0825H178.596V17.6719H173.548Z" fill="white"/>
<path d="M164.496 13.042L166.7 15.2517L168.912 13.042V8H164.496V13.042Z" fill="white"/>
</g>
<defs>
<clipPath id="clip0_3010_6975">
<rect width="128.313" height="22.3154" fill="white" transform="translate(0 8.84375)"/>
</clipPath>
<clipPath id="clip1_3010_6975">
<rect width="72.2449" height="24" fill="white" transform="translate(154.813 8)"/>
</clipPath>
</defs>
</svg>
