<svg width="50" height="50" viewBox="0 0 50 50" fill="none" xmlns="http://www.w3.org/2000/svg">
<g>
<rect x="0.5" y="0.5" width="49" height="49" rx="8.5" stroke="#E7E7E7"/>
<path d="M25.8011 17.2148C26.6768 17.2172 27.1212 17.2218 27.5049 17.2327L27.6559 17.2382C27.8302 17.2444 28.0022 17.2522 28.2101 17.2615C29.0382 17.3005 29.6033 17.4312 30.0991 17.6235C30.6128 17.8212 31.0455 18.0889 31.4783 18.5209C31.8742 18.9098 32.1805 19.3805 32.3757 19.9001C32.5679 20.3959 32.6987 20.9609 32.7376 21.7899C32.7469 21.9969 32.7547 22.1689 32.7609 22.344L32.7656 22.495C32.7773 22.878 32.782 23.3224 32.7835 24.198L32.7843 24.7786V25.7982C32.7862 26.366 32.7802 26.9337 32.7664 27.5012L32.7617 27.6522C32.7555 27.8273 32.7477 27.9994 32.7384 28.2064C32.6995 29.0353 32.5671 29.5996 32.3757 30.0962C32.1805 30.6157 31.8742 31.0864 31.4783 31.4754C31.0893 31.8713 30.6186 32.1776 30.0991 32.3728C29.6033 32.565 29.0382 32.6958 28.2101 32.7347L27.6559 32.7581L27.5049 32.7627C27.1212 32.7736 26.6768 32.7791 25.8011 32.7806L25.2205 32.7814H24.2017C23.6337 32.7834 23.0657 32.7774 22.4979 32.7635L22.3469 32.7588C22.1621 32.7518 21.9774 32.7438 21.7927 32.7347C20.9646 32.6958 20.3995 32.565 19.903 32.3728C19.3837 32.1775 18.9133 31.8712 18.5245 31.4754C18.1283 31.0865 17.8218 30.6158 17.6264 30.0962C17.4341 29.6004 17.3033 29.0353 17.2644 28.2064L17.2411 27.6522L17.2372 27.5012C17.2228 26.9337 17.2164 26.366 17.2177 25.7982V24.198C17.2156 23.6303 17.2213 23.0626 17.2349 22.495L17.2403 22.344C17.2465 22.1689 17.2543 21.9969 17.2636 21.7899C17.3026 20.9609 17.4333 20.3966 17.6256 19.9001C17.8215 19.3803 18.1285 18.9096 18.5253 18.5209C18.9138 18.1251 19.384 17.8189 19.903 17.6235C20.3995 17.4312 20.9638 17.3005 21.7927 17.2615C21.9998 17.2522 22.1726 17.2444 22.3469 17.2382L22.4979 17.2335C23.0655 17.2197 23.6332 17.2137 24.2009 17.2156L25.8011 17.2148ZM25.001 21.1065C23.9689 21.1065 22.979 21.5165 22.2492 22.2463C21.5194 22.9761 21.1094 23.966 21.1094 24.9981C21.1094 26.0303 21.5194 27.0201 22.2492 27.7499C22.979 28.4798 23.9689 28.8898 25.001 28.8898C26.0331 28.8898 27.023 28.4798 27.7528 27.7499C28.4826 27.0201 28.8927 26.0303 28.8927 24.9981C28.8927 23.966 28.4826 22.9761 27.7528 22.2463C27.023 21.5165 26.0331 21.1065 25.001 21.1065ZM29.4111 19.3309C29.1531 19.3309 28.9056 19.4334 28.7232 19.6158C28.5407 19.7983 28.4382 20.0457 28.4382 20.3038C28.4382 20.5618 28.5407 20.8093 28.7232 20.9917C28.9056 21.1742 29.1531 21.2767 29.4111 21.2767C29.6691 21.2767 29.9166 21.1742 30.0991 20.9917C30.2815 20.8093 30.384 20.5618 30.384 20.3038C30.384 20.0457 30.2815 19.7983 30.0991 19.6158C29.9166 19.4334 29.6691 19.3309 29.4111 19.3309Z" stroke="#D1D1D1"/>
</g>
</svg>
